<mxfile host="app.diagrams.net" modified="2021-06-30T03:38:33.030Z" agent="5.0 (Windows NT 10.0; Win64; x64) AppleWebKit/537.36 (KHTML, like Gecko) Chrome/91.0.4472.114 Safari/537.36" etag="aVaIiCMUaRjuYg2FV2iD" version="14.8.2" type="github">
  <diagram id="Oj_1VP5wCIqyrSS5qVrD" name="user-login-flow">
    <mxGraphModel dx="1422" dy="762" grid="1" gridSize="10" guides="1" tooltips="1" connect="1" arrows="1" fold="1" page="1" pageScale="1" pageWidth="850" pageHeight="1100" math="0" shadow="0">
      <root>
        <mxCell id="0" />
        <mxCell id="1" parent="0" />
        <mxCell id="h88RBs9O0-4uMdW3XvSD-51" style="edgeStyle=orthogonalEdgeStyle;rounded=0;orthogonalLoop=1;jettySize=auto;html=1;" edge="1" parent="1" source="h88RBs9O0-4uMdW3XvSD-1" target="h88RBs9O0-4uMdW3XvSD-2">
          <mxGeometry relative="1" as="geometry" />
        </mxCell>
        <mxCell id="h88RBs9O0-4uMdW3XvSD-1" value="加载登录页面" style="rounded=1;whiteSpace=wrap;html=1;" vertex="1" parent="1">
          <mxGeometry x="365.5" y="70" width="120" height="60" as="geometry" />
        </mxCell>
        <mxCell id="h88RBs9O0-4uMdW3XvSD-52" style="edgeStyle=orthogonalEdgeStyle;rounded=0;orthogonalLoop=1;jettySize=auto;html=1;entryX=0.5;entryY=0;entryDx=0;entryDy=0;" edge="1" parent="1" source="h88RBs9O0-4uMdW3XvSD-2" target="h88RBs9O0-4uMdW3XvSD-3">
          <mxGeometry relative="1" as="geometry" />
        </mxCell>
        <mxCell id="h88RBs9O0-4uMdW3XvSD-65" value="Y" style="edgeLabel;html=1;align=center;verticalAlign=middle;resizable=0;points=[];" vertex="1" connectable="0" parent="h88RBs9O0-4uMdW3XvSD-52">
          <mxGeometry x="-0.0119" relative="1" as="geometry">
            <mxPoint as="offset" />
          </mxGeometry>
        </mxCell>
        <mxCell id="h88RBs9O0-4uMdW3XvSD-2" value="检查localStorage储存 的用户信息" style="rhombus;whiteSpace=wrap;html=1;" vertex="1" parent="1">
          <mxGeometry x="348" y="180" width="155" height="60" as="geometry" />
        </mxCell>
        <mxCell id="h88RBs9O0-4uMdW3XvSD-23" value="" style="edgeStyle=orthogonalEdgeStyle;rounded=0;orthogonalLoop=1;jettySize=auto;html=1;exitX=1;exitY=0.5;exitDx=0;exitDy=0;" edge="1" parent="1" source="h88RBs9O0-4uMdW3XvSD-2" target="h88RBs9O0-4uMdW3XvSD-22">
          <mxGeometry relative="1" as="geometry" />
        </mxCell>
        <mxCell id="h88RBs9O0-4uMdW3XvSD-24" value="N" style="edgeLabel;html=1;align=center;verticalAlign=middle;resizable=0;points=[];" vertex="1" connectable="0" parent="h88RBs9O0-4uMdW3XvSD-23">
          <mxGeometry x="-0.2571" y="-1" relative="1" as="geometry">
            <mxPoint as="offset" />
          </mxGeometry>
        </mxCell>
        <mxCell id="h88RBs9O0-4uMdW3XvSD-64" style="edgeStyle=orthogonalEdgeStyle;rounded=0;orthogonalLoop=1;jettySize=auto;html=1;entryX=0.5;entryY=0;entryDx=0;entryDy=0;dashed=1;" edge="1" parent="1" source="h88RBs9O0-4uMdW3XvSD-3" target="h88RBs9O0-4uMdW3XvSD-7">
          <mxGeometry relative="1" as="geometry" />
        </mxCell>
        <mxCell id="h88RBs9O0-4uMdW3XvSD-69" style="edgeStyle=orthogonalEdgeStyle;rounded=0;orthogonalLoop=1;jettySize=auto;html=1;entryX=0.25;entryY=0;entryDx=0;entryDy=0;" edge="1" parent="1" source="h88RBs9O0-4uMdW3XvSD-3" target="h88RBs9O0-4uMdW3XvSD-17">
          <mxGeometry relative="1" as="geometry" />
        </mxCell>
        <mxCell id="h88RBs9O0-4uMdW3XvSD-3" value="获取用户信息" style="whiteSpace=wrap;html=1;" vertex="1" parent="1">
          <mxGeometry x="250" y="300" width="80" height="60" as="geometry" />
        </mxCell>
        <mxCell id="h88RBs9O0-4uMdW3XvSD-18" value="" style="edgeStyle=orthogonalEdgeStyle;rounded=0;orthogonalLoop=1;jettySize=auto;html=1;dashed=1;" edge="1" parent="1" source="h88RBs9O0-4uMdW3XvSD-7" target="h88RBs9O0-4uMdW3XvSD-17">
          <mxGeometry relative="1" as="geometry" />
        </mxCell>
        <mxCell id="h88RBs9O0-4uMdW3XvSD-54" value="Y" style="edgeLabel;html=1;align=center;verticalAlign=middle;resizable=0;points=[];" vertex="1" connectable="0" parent="h88RBs9O0-4uMdW3XvSD-18">
          <mxGeometry x="-0.2" y="2" relative="1" as="geometry">
            <mxPoint as="offset" />
          </mxGeometry>
        </mxCell>
        <mxCell id="h88RBs9O0-4uMdW3XvSD-57" value="" style="edgeStyle=orthogonalEdgeStyle;rounded=0;orthogonalLoop=1;jettySize=auto;html=1;dashed=1;" edge="1" parent="1" source="h88RBs9O0-4uMdW3XvSD-7" target="h88RBs9O0-4uMdW3XvSD-56">
          <mxGeometry relative="1" as="geometry" />
        </mxCell>
        <mxCell id="h88RBs9O0-4uMdW3XvSD-58" value="N" style="edgeLabel;html=1;align=center;verticalAlign=middle;resizable=0;points=[];" vertex="1" connectable="0" parent="h88RBs9O0-4uMdW3XvSD-57">
          <mxGeometry x="-0.2933" relative="1" as="geometry">
            <mxPoint as="offset" />
          </mxGeometry>
        </mxCell>
        <mxCell id="h88RBs9O0-4uMdW3XvSD-66" style="edgeStyle=orthogonalEdgeStyle;rounded=0;orthogonalLoop=1;jettySize=auto;html=1;entryX=0;entryY=0.5;entryDx=0;entryDy=0;dashed=1;" edge="1" parent="1" source="h88RBs9O0-4uMdW3XvSD-7" target="h88RBs9O0-4uMdW3XvSD-22">
          <mxGeometry relative="1" as="geometry">
            <Array as="points">
              <mxPoint x="370" y="500" />
              <mxPoint x="370" y="350" />
            </Array>
          </mxGeometry>
        </mxCell>
        <mxCell id="h88RBs9O0-4uMdW3XvSD-68" value="无指定用户" style="edgeLabel;html=1;align=center;verticalAlign=middle;resizable=0;points=[];" vertex="1" connectable="0" parent="h88RBs9O0-4uMdW3XvSD-66">
          <mxGeometry x="-0.2974" y="-4" relative="1" as="geometry">
            <mxPoint as="offset" />
          </mxGeometry>
        </mxCell>
        <mxCell id="h88RBs9O0-4uMdW3XvSD-7" value="多个账号信息" style="rhombus;whiteSpace=wrap;html=1;" vertex="1" parent="1">
          <mxGeometry x="250" y="460" width="80" height="80" as="geometry" />
        </mxCell>
        <mxCell id="h88RBs9O0-4uMdW3XvSD-59" style="edgeStyle=orthogonalEdgeStyle;rounded=0;orthogonalLoop=1;jettySize=auto;html=1;entryX=0;entryY=0.5;entryDx=0;entryDy=0;exitX=0.5;exitY=1;exitDx=0;exitDy=0;" edge="1" parent="1" source="h88RBs9O0-4uMdW3XvSD-17" target="h88RBs9O0-4uMdW3XvSD-56">
          <mxGeometry relative="1" as="geometry" />
        </mxCell>
        <mxCell id="h88RBs9O0-4uMdW3XvSD-17" value="指定用户" style="whiteSpace=wrap;html=1;" vertex="1" parent="1">
          <mxGeometry x="87" y="580" width="120" height="60" as="geometry" />
        </mxCell>
        <mxCell id="h88RBs9O0-4uMdW3XvSD-20" value="登录" style="whiteSpace=wrap;html=1;" vertex="1" parent="1">
          <mxGeometry x="410" y="920" width="120" height="60" as="geometry" />
        </mxCell>
        <mxCell id="h88RBs9O0-4uMdW3XvSD-28" value="" style="edgeStyle=orthogonalEdgeStyle;rounded=0;orthogonalLoop=1;jettySize=auto;html=1;" edge="1" parent="1" source="h88RBs9O0-4uMdW3XvSD-22" target="h88RBs9O0-4uMdW3XvSD-27">
          <mxGeometry relative="1" as="geometry" />
        </mxCell>
        <mxCell id="h88RBs9O0-4uMdW3XvSD-22" value="显示登录页面" style="whiteSpace=wrap;html=1;" vertex="1" parent="1">
          <mxGeometry x="570" y="320" width="120" height="60" as="geometry" />
        </mxCell>
        <mxCell id="h88RBs9O0-4uMdW3XvSD-35" style="edgeStyle=orthogonalEdgeStyle;rounded=0;orthogonalLoop=1;jettySize=auto;html=1;entryX=0.5;entryY=0;entryDx=0;entryDy=0;" edge="1" parent="1" source="h88RBs9O0-4uMdW3XvSD-27" target="h88RBs9O0-4uMdW3XvSD-29">
          <mxGeometry relative="1" as="geometry" />
        </mxCell>
        <mxCell id="h88RBs9O0-4uMdW3XvSD-36" value="N" style="edgeLabel;html=1;align=center;verticalAlign=middle;resizable=0;points=[];" vertex="1" connectable="0" parent="h88RBs9O0-4uMdW3XvSD-35">
          <mxGeometry x="-0.19" y="-1" relative="1" as="geometry">
            <mxPoint as="offset" />
          </mxGeometry>
        </mxCell>
        <mxCell id="h88RBs9O0-4uMdW3XvSD-38" value="" style="edgeStyle=orthogonalEdgeStyle;rounded=0;orthogonalLoop=1;jettySize=auto;html=1;entryX=0.5;entryY=0;entryDx=0;entryDy=0;" edge="1" parent="1" source="h88RBs9O0-4uMdW3XvSD-27" target="h88RBs9O0-4uMdW3XvSD-42">
          <mxGeometry relative="1" as="geometry">
            <mxPoint x="640" y="660" as="targetPoint" />
          </mxGeometry>
        </mxCell>
        <mxCell id="h88RBs9O0-4uMdW3XvSD-41" value="Y" style="edgeLabel;html=1;align=center;verticalAlign=middle;resizable=0;points=[];" vertex="1" connectable="0" parent="h88RBs9O0-4uMdW3XvSD-38">
          <mxGeometry x="-0.2889" y="3" relative="1" as="geometry">
            <mxPoint as="offset" />
          </mxGeometry>
        </mxCell>
        <mxCell id="h88RBs9O0-4uMdW3XvSD-27" value="验证U/P" style="rhombus;whiteSpace=wrap;html=1;" vertex="1" parent="1">
          <mxGeometry x="590" y="450" width="80" height="80" as="geometry" />
        </mxCell>
        <mxCell id="h88RBs9O0-4uMdW3XvSD-40" value="" style="edgeStyle=orthogonalEdgeStyle;rounded=0;orthogonalLoop=1;jettySize=auto;html=1;" edge="1" parent="1" source="h88RBs9O0-4uMdW3XvSD-29" target="h88RBs9O0-4uMdW3XvSD-39">
          <mxGeometry relative="1" as="geometry" />
        </mxCell>
        <mxCell id="h88RBs9O0-4uMdW3XvSD-29" value="显示Error message" style="whiteSpace=wrap;html=1;" vertex="1" parent="1">
          <mxGeometry x="740" y="560" width="120" height="60" as="geometry" />
        </mxCell>
        <mxCell id="h88RBs9O0-4uMdW3XvSD-39" value="END" style="ellipse;whiteSpace=wrap;html=1;" vertex="1" parent="1">
          <mxGeometry x="740" y="670" width="120" height="60" as="geometry" />
        </mxCell>
        <mxCell id="h88RBs9O0-4uMdW3XvSD-45" style="edgeStyle=orthogonalEdgeStyle;rounded=0;orthogonalLoop=1;jettySize=auto;html=1;entryX=0.5;entryY=0;entryDx=0;entryDy=0;" edge="1" parent="1" source="h88RBs9O0-4uMdW3XvSD-42" target="h88RBs9O0-4uMdW3XvSD-20">
          <mxGeometry relative="1" as="geometry" />
        </mxCell>
        <mxCell id="h88RBs9O0-4uMdW3XvSD-46" value="N" style="edgeLabel;html=1;align=center;verticalAlign=middle;resizable=0;points=[];" vertex="1" connectable="0" parent="h88RBs9O0-4uMdW3XvSD-45">
          <mxGeometry x="-0.3611" y="-1" relative="1" as="geometry">
            <mxPoint as="offset" />
          </mxGeometry>
        </mxCell>
        <mxCell id="h88RBs9O0-4uMdW3XvSD-48" value="" style="edgeStyle=orthogonalEdgeStyle;rounded=0;orthogonalLoop=1;jettySize=auto;html=1;" edge="1" parent="1" source="h88RBs9O0-4uMdW3XvSD-42" target="h88RBs9O0-4uMdW3XvSD-47">
          <mxGeometry relative="1" as="geometry" />
        </mxCell>
        <mxCell id="h88RBs9O0-4uMdW3XvSD-49" value="Y" style="edgeLabel;html=1;align=center;verticalAlign=middle;resizable=0;points=[];" vertex="1" connectable="0" parent="h88RBs9O0-4uMdW3XvSD-48">
          <mxGeometry x="-0.2667" y="-1" relative="1" as="geometry">
            <mxPoint as="offset" />
          </mxGeometry>
        </mxCell>
        <mxCell id="h88RBs9O0-4uMdW3XvSD-42" value="保存用户信息" style="rhombus;whiteSpace=wrap;html=1;" vertex="1" parent="1">
          <mxGeometry x="590" y="640" width="80" height="80" as="geometry" />
        </mxCell>
        <mxCell id="h88RBs9O0-4uMdW3XvSD-50" style="edgeStyle=orthogonalEdgeStyle;rounded=0;orthogonalLoop=1;jettySize=auto;html=1;entryX=0.5;entryY=0;entryDx=0;entryDy=0;" edge="1" parent="1" source="h88RBs9O0-4uMdW3XvSD-47" target="h88RBs9O0-4uMdW3XvSD-20">
          <mxGeometry relative="1" as="geometry" />
        </mxCell>
        <mxCell id="h88RBs9O0-4uMdW3XvSD-47" value="保存用户信息到localStorage" style="whiteSpace=wrap;html=1;" vertex="1" parent="1">
          <mxGeometry x="570" y="770" width="120" height="60" as="geometry" />
        </mxCell>
        <mxCell id="h88RBs9O0-4uMdW3XvSD-60" style="edgeStyle=orthogonalEdgeStyle;rounded=0;orthogonalLoop=1;jettySize=auto;html=1;entryX=0;entryY=0.5;entryDx=0;entryDy=0;" edge="1" parent="1" source="h88RBs9O0-4uMdW3XvSD-56" target="h88RBs9O0-4uMdW3XvSD-27">
          <mxGeometry relative="1" as="geometry">
            <Array as="points">
              <mxPoint x="400" y="765" />
              <mxPoint x="400" y="490" />
            </Array>
          </mxGeometry>
        </mxCell>
        <mxCell id="h88RBs9O0-4uMdW3XvSD-61" value="Y" style="edgeLabel;html=1;align=center;verticalAlign=middle;resizable=0;points=[];" vertex="1" connectable="0" parent="h88RBs9O0-4uMdW3XvSD-60">
          <mxGeometry x="-0.6194" y="2" relative="1" as="geometry">
            <mxPoint as="offset" />
          </mxGeometry>
        </mxCell>
        <mxCell id="h88RBs9O0-4uMdW3XvSD-62" style="edgeStyle=orthogonalEdgeStyle;rounded=0;orthogonalLoop=1;jettySize=auto;html=1;entryX=0;entryY=0.5;entryDx=0;entryDy=0;exitX=0.5;exitY=1;exitDx=0;exitDy=0;" edge="1" parent="1" source="h88RBs9O0-4uMdW3XvSD-56" target="h88RBs9O0-4uMdW3XvSD-20">
          <mxGeometry relative="1" as="geometry">
            <mxPoint x="300" y="910" as="targetPoint" />
          </mxGeometry>
        </mxCell>
        <mxCell id="h88RBs9O0-4uMdW3XvSD-63" value="N" style="edgeLabel;html=1;align=center;verticalAlign=middle;resizable=0;points=[];" vertex="1" connectable="0" parent="h88RBs9O0-4uMdW3XvSD-62">
          <mxGeometry x="-0.6538" y="-1" relative="1" as="geometry">
            <mxPoint as="offset" />
          </mxGeometry>
        </mxCell>
        <mxCell id="h88RBs9O0-4uMdW3XvSD-56" value="验证token是否过期" style="rhombus;whiteSpace=wrap;html=1;" vertex="1" parent="1">
          <mxGeometry x="230" y="720" width="120" height="90" as="geometry" />
        </mxCell>
      </root>
    </mxGraphModel>
  </diagram>
</mxfile>
